<svg width="106" height="106" viewBox="0 0 106 106" fill="none" xmlns="http://www.w3.org/2000/svg">
<g clip-path="url(#clip0_106_9)">
<path d="M103.088 89.035L85.4261 71.3728C90.0553 64.1565 92.75 55.5837 92.75 46.375C92.75 20.7628 71.9872 0 46.375 0C20.7627 0 0 20.7628 0 46.375C0 71.9872 20.7627 92.75 46.375 92.75C55.5837 92.75 64.1565 90.0553 71.3728 85.4261L89.035 103.088C92.9173 106.971 99.2077 106.971 103.088 103.088C106.969 99.2061 106.971 92.9173 103.088 89.035ZM46.375 89.4375C22.5929 89.4375 3.3125 70.1571 3.3125 46.375C3.3125 22.5929 22.5929 3.3125 46.375 3.3125C70.1571 3.3125 89.4375 22.5929 89.4375 46.375C89.4375 70.1571 70.1571 89.4375 46.375 89.4375ZM100.746 100.746C98.1593 103.333 93.964 103.333 91.3786 100.746L74.1487 83.5164C77.7013 80.8565 80.8581 77.698 83.5181 74.1487L100.746 91.377C103.335 93.9624 103.335 98.1593 100.746 100.746Z" fill="black"/>
<path d="M46.375 6.625C24.4214 6.625 6.625 24.4214 6.625 46.375C6.625 68.3286 24.4214 86.125 46.375 86.125C68.3286 86.125 86.125 68.3286 86.125 46.375C86.125 24.4214 68.3286 6.625 46.375 6.625ZM46.375 82.8125C26.2516 82.8125 9.9375 66.4984 9.9375 46.375C9.9375 26.2516 26.2516 9.9375 46.375 9.9375C66.4984 9.9375 82.8125 26.2516 82.8125 46.375C82.8125 66.4984 66.4984 82.8125 46.375 82.8125Z" fill="black"/>
<path d="M46.375 18.2188C45.4591 18.2188 44.7188 18.9591 44.7188 19.875C44.7188 20.7909 45.4591 21.5312 46.375 21.5312C60.0954 21.5312 71.2188 32.6546 71.2188 46.375C71.2188 47.2909 71.9591 48.0312 72.875 48.0312C73.7909 48.0312 74.5312 47.2909 74.5312 46.375C74.5312 30.8245 61.9255 18.2188 46.375 18.2188Z" fill="black"/>
<path d="M56.4394 56.0551L55.4922 55.7844C53.8985 55.3484 52.801 55.0177 52.6206 53.1534C56.8754 48.643 56.8152 44.6287 56.725 40.419C56.725 39.8477 56.725 39.2763 56.725 38.69C56.6862 35.9109 55.5649 33.2565 53.5996 31.2912C51.6342 29.3259 48.9799 28.2046 46.2008 28.1657C43.419 28.2007 40.7608 29.3203 38.7923 31.286C36.8238 33.2517 35.7004 35.9083 35.6614 38.69C35.6614 39.2763 35.6614 39.8477 35.6614 40.419C35.5712 44.6287 35.5111 48.6129 39.7659 53.1534C39.5855 55.0177 38.488 55.3484 36.8943 55.7844L35.9471 56.0551C30.5647 57.8442 25.1371 62.7455 25.1371 68.7594C25.1371 69.1581 25.2955 69.5405 25.5775 69.8225C25.8595 70.1045 26.2419 70.2629 26.6406 70.2629C27.0394 70.2629 27.4218 70.1045 27.7037 69.8225C27.9857 69.5405 28.1441 69.1581 28.1441 68.7594C28.1441 64.249 32.6545 60.3249 36.8943 58.9117C37.1348 58.8215 37.4055 58.7613 37.6761 58.6861C38.6794 58.5377 39.6308 58.1447 40.4462 57.5416C41.2617 56.9385 41.9161 56.144 42.3519 55.2282C43.531 55.8599 44.848 56.1904 46.1857 56.1904C47.5234 56.1904 48.8404 55.8599 50.0196 55.2282C50.4456 56.1581 51.0959 56.9677 51.912 57.5843C52.728 58.201 53.6844 58.6054 54.6954 58.7613C54.966 58.8365 55.2366 58.8966 55.4772 58.9868C59.7169 60.3249 64.2273 64.249 64.2273 68.7594C64.2273 69.1581 64.3857 69.5405 64.6677 69.8225C64.9497 70.1045 65.3321 70.2629 65.7308 70.2629C66.1296 70.2629 66.512 70.1045 66.7939 69.8225C67.0759 69.5405 67.2343 69.1581 67.2343 68.7594C67.2343 62.7455 61.8068 57.8442 56.4394 56.0551ZM42.3669 51.5447C38.518 47.7108 38.5782 44.4934 38.6684 40.4641C38.6684 39.8928 38.6684 39.2914 38.6684 38.69C38.6684 36.6963 39.4604 34.7842 40.8702 33.3744C42.2799 31.9647 44.192 31.1726 46.1857 31.1726C48.1794 31.1726 50.0915 31.9647 51.5013 33.3744C52.9111 34.7842 53.7031 36.6963 53.7031 38.69C53.7031 39.2914 53.7031 39.8928 53.7031 40.4641C53.7031 44.4934 53.8384 47.6807 49.9895 51.5296C49.4895 52.031 48.8955 52.4289 48.2415 52.7003C47.5874 52.9717 46.8863 53.1115 46.1782 53.1115C45.4701 53.1115 44.769 52.9717 44.1149 52.7003C43.4609 52.4289 42.8669 52.031 42.3669 51.5296V51.5447Z" fill="black"/>
</g>
<defs>
<clipPath id="clip0_106_9">
<rect width="106" height="106" fill="white"/>
</clipPath>
</defs>
</svg>
