<svg width="530" height="106" viewBox="0 0 530 106" fill="none" xmlns="http://www.w3.org/2000/svg">
<path d="M116.318 33.8409V30.0909H142.5V33.8409H131.523V65H127.295V33.8409H116.318ZM152.621 65.6136C150.962 65.6136 149.456 65.3011 148.104 64.6761C146.751 64.0398 145.678 63.125 144.882 61.9318C144.087 60.7273 143.689 59.2727 143.689 57.5682C143.689 56.0682 143.984 54.8523 144.575 53.9205C145.166 52.9773 145.956 52.2386 146.945 51.7045C147.933 51.1705 149.024 50.7727 150.217 50.5114C151.422 50.2386 152.632 50.0227 153.848 49.8636C155.439 49.6591 156.729 49.5057 157.717 49.4034C158.717 49.2898 159.445 49.1023 159.899 48.8409C160.365 48.5795 160.598 48.125 160.598 47.4773V47.3409C160.598 45.6591 160.138 44.3523 159.217 43.4205C158.308 42.4886 156.928 42.0227 155.075 42.0227C153.155 42.0227 151.649 42.4432 150.558 43.2841C149.467 44.125 148.7 45.0227 148.257 45.9773L144.439 44.6136C145.121 43.0227 146.03 41.7841 147.166 40.8977C148.314 40 149.564 39.375 150.916 39.0227C152.28 38.6591 153.621 38.4773 154.939 38.4773C155.78 38.4773 156.746 38.5795 157.837 38.7841C158.939 38.9773 160.001 39.3807 161.024 39.9943C162.058 40.608 162.916 41.5341 163.598 42.7727C164.28 44.0114 164.621 45.6705 164.621 47.75V65H160.598V61.4545H160.393C160.121 62.0227 159.666 62.6307 159.03 63.2784C158.393 63.9261 157.547 64.4773 156.49 64.9318C155.433 65.3864 154.143 65.6136 152.621 65.6136ZM153.234 62C154.825 62 156.166 61.6875 157.257 61.0625C158.359 60.4375 159.189 59.6307 159.746 58.642C160.314 57.6534 160.598 56.6136 160.598 55.5227V51.8409C160.428 52.0455 160.053 52.233 159.473 52.4034C158.905 52.5625 158.246 52.7045 157.496 52.8295C156.757 52.9432 156.036 53.0455 155.331 53.1364C154.638 53.2159 154.075 53.2841 153.643 53.3409C152.598 53.4773 151.621 53.6989 150.712 54.0057C149.814 54.3011 149.087 54.75 148.53 55.3523C147.984 55.9432 147.712 56.75 147.712 57.7727C147.712 59.1705 148.229 60.2273 149.263 60.9432C150.308 61.6477 151.632 62 153.234 62ZM175.986 30.0909V65H171.963V30.0909H175.986ZM194.331 65.5455C191.808 65.5455 189.632 64.9886 187.803 63.875C185.984 62.75 184.581 61.1818 183.592 59.1705C182.615 57.1477 182.126 54.7955 182.126 52.1136C182.126 49.4318 182.615 47.0682 183.592 45.0227C184.581 42.9659 185.956 41.3636 187.717 40.2159C189.49 39.0568 191.558 38.4773 193.922 38.4773C195.286 38.4773 196.632 38.7045 197.962 39.1591C199.291 39.6136 200.501 40.3523 201.592 41.375C202.683 42.3864 203.553 43.7273 204.2 45.3977C204.848 47.0682 205.172 49.125 205.172 51.5682V53.2727H184.99V49.7955H201.081C201.081 48.3182 200.786 47 200.195 45.8409C199.615 44.6818 198.786 43.767 197.706 43.0966C196.638 42.4261 195.376 42.0909 193.922 42.0909C192.32 42.0909 190.933 42.4886 189.763 43.2841C188.604 44.0682 187.712 45.0909 187.087 46.3523C186.462 47.6136 186.149 48.9659 186.149 50.4091V52.7273C186.149 54.7045 186.49 56.3807 187.172 57.7557C187.865 59.1193 188.825 60.1591 190.053 60.875C191.28 61.5795 192.706 61.9318 194.331 61.9318C195.388 61.9318 196.342 61.7841 197.195 61.4886C198.058 61.1818 198.803 60.7273 199.428 60.125C200.053 59.5114 200.536 58.75 200.876 57.8409L204.763 58.9318C204.354 60.25 203.666 61.4091 202.7 62.4091C201.734 63.3977 200.541 64.1705 199.121 64.7273C197.7 65.2727 196.104 65.5455 194.331 65.5455ZM215.314 49.25V65H211.291V38.8182H215.178V42.9091H215.518C216.132 41.5795 217.064 40.5114 218.314 39.7045C219.564 38.8864 221.178 38.4773 223.155 38.4773C224.928 38.4773 226.479 38.8409 227.808 39.5682C229.138 40.2841 230.172 41.375 230.911 42.8409C231.649 44.2955 232.018 46.1364 232.018 48.3636V65H227.996V48.6364C227.996 46.5795 227.462 44.9773 226.393 43.8295C225.325 42.6705 223.859 42.0909 221.996 42.0909C220.712 42.0909 219.564 42.3693 218.553 42.9261C217.553 43.483 216.763 44.2955 216.183 45.3636C215.604 46.4318 215.314 47.7273 215.314 49.25ZM250.756 38.8182V42.2273H237.188V38.8182H250.756ZM241.142 32.5455H245.165V57.5C245.165 58.6364 245.33 59.4886 245.659 60.0568C246 60.6136 246.432 60.9886 246.955 61.1818C247.489 61.3636 248.051 61.4545 248.642 61.4545C249.085 61.4545 249.449 61.4318 249.733 61.3864C250.017 61.3295 250.244 61.2841 250.415 61.25L251.233 64.8636C250.96 64.9659 250.58 65.0682 250.091 65.1705C249.602 65.2841 248.983 65.3409 248.233 65.3409C247.097 65.3409 245.983 65.0966 244.892 64.608C243.813 64.1193 242.915 63.375 242.199 62.375C241.494 61.375 241.142 60.1136 241.142 58.5909V32.5455ZM270.869 48.1591V51.9091H255.597V48.1591H270.869ZM296.493 44.6818L292.879 45.7045C292.652 45.1023 292.317 44.517 291.874 43.9489C291.442 43.3693 290.851 42.892 290.101 42.517C289.351 42.142 288.391 41.9545 287.22 41.9545C285.618 41.9545 284.283 42.3239 283.214 43.0625C282.158 43.7898 281.629 44.7159 281.629 45.8409C281.629 46.8409 281.993 47.6307 282.72 48.2102C283.447 48.7898 284.584 49.2727 286.129 49.6591L290.016 50.6136C292.357 51.1818 294.101 52.0511 295.249 53.2216C296.396 54.3807 296.97 55.875 296.97 57.7045C296.97 59.2045 296.538 60.5455 295.675 61.7273C294.822 62.9091 293.629 63.8409 292.095 64.5227C290.561 65.2045 288.777 65.5455 286.743 65.5455C284.072 65.5455 281.862 64.9659 280.112 63.8068C278.362 62.6477 277.254 60.9545 276.788 58.7273L280.607 57.7727C280.97 59.1818 281.658 60.2386 282.669 60.9432C283.692 61.6477 285.027 62 286.675 62C288.55 62 290.038 61.6023 291.141 60.8068C292.254 60 292.811 59.0341 292.811 57.9091C292.811 57 292.493 56.2386 291.857 55.625C291.22 55 290.243 54.5341 288.925 54.2273L284.561 53.2045C282.163 52.6364 280.402 51.7557 279.277 50.5625C278.163 49.358 277.607 47.8523 277.607 46.0455C277.607 44.5682 278.021 43.2614 278.851 42.125C279.692 40.9886 280.834 40.0966 282.277 39.4489C283.732 38.8011 285.379 38.4773 287.22 38.4773C289.811 38.4773 291.845 39.0455 293.322 40.1818C294.811 41.3182 295.868 42.8182 296.493 44.6818ZM313.662 65.5455C311.298 65.5455 309.224 64.983 307.44 63.858C305.668 62.733 304.281 61.1591 303.281 59.1364C302.293 57.1136 301.798 54.75 301.798 52.0455C301.798 49.3182 302.293 46.9375 303.281 44.9034C304.281 42.8693 305.668 41.2898 307.44 40.1648C309.224 39.0398 311.298 38.4773 313.662 38.4773C316.026 38.4773 318.094 39.0398 319.866 40.1648C321.651 41.2898 323.037 42.8693 324.026 44.9034C325.026 46.9375 325.526 49.3182 325.526 52.0455C325.526 54.75 325.026 57.1136 324.026 59.1364C323.037 61.1591 321.651 62.733 319.866 63.858C318.094 64.983 316.026 65.5455 313.662 65.5455ZM313.662 61.9318C315.457 61.9318 316.935 61.4716 318.094 60.5511C319.253 59.6307 320.111 58.4205 320.668 56.9205C321.224 55.4205 321.503 53.7955 321.503 52.0455C321.503 50.2955 321.224 48.6648 320.668 47.1534C320.111 45.642 319.253 44.4205 318.094 43.4886C316.935 42.5568 315.457 42.0909 313.662 42.0909C311.866 42.0909 310.389 42.5568 309.23 43.4886C308.071 44.4205 307.213 45.642 306.656 47.1534C306.099 48.6648 305.821 50.2955 305.821 52.0455C305.821 53.7955 306.099 55.4205 306.656 56.9205C307.213 58.4205 308.071 59.6307 309.23 60.5511C310.389 61.4716 311.866 61.9318 313.662 61.9318ZM348.166 54.2955V38.8182H352.189V65H348.166V60.5682H347.893C347.28 61.8977 346.325 63.0284 345.03 63.9602C343.734 64.8807 342.098 65.3409 340.121 65.3409C338.484 65.3409 337.03 64.983 335.757 64.267C334.484 63.5398 333.484 62.4489 332.757 60.9943C332.03 59.5284 331.666 57.6818 331.666 55.4545V38.8182H335.689V55.1818C335.689 57.0909 336.223 58.6136 337.291 59.75C338.371 60.8864 339.746 61.4545 341.416 61.4545C342.416 61.4545 343.433 61.1989 344.467 60.6875C345.513 60.1761 346.388 59.392 347.092 58.3352C347.808 57.2784 348.166 55.9318 348.166 54.2955ZM359.557 65V38.8182H363.443V42.7727H363.716C364.193 41.4773 365.057 40.4261 366.307 39.6193C367.557 38.8125 368.966 38.4091 370.534 38.4091C370.83 38.4091 371.199 38.4148 371.642 38.4261C372.085 38.4375 372.42 38.4545 372.648 38.4773V42.5682C372.511 42.5341 372.199 42.483 371.71 42.4148C371.233 42.3352 370.727 42.2955 370.193 42.2955C368.92 42.2955 367.784 42.5625 366.784 43.0966C365.795 43.6193 365.011 44.3466 364.432 45.2784C363.864 46.1989 363.58 47.25 363.58 48.4318V65H359.557ZM387.256 65.5455C384.801 65.5455 382.688 64.9659 380.915 63.8068C379.142 62.6477 377.778 61.0511 376.824 59.017C375.869 56.983 375.392 54.6591 375.392 52.0455C375.392 49.3864 375.881 47.0398 376.858 45.0057C377.847 42.9602 379.222 41.3636 380.983 40.2159C382.756 39.0568 384.824 38.4773 387.188 38.4773C389.028 38.4773 390.688 38.8182 392.165 39.5C393.642 40.1818 394.852 41.1364 395.795 42.3636C396.739 43.5909 397.324 45.0227 397.551 46.6591H393.528C393.222 45.4659 392.54 44.4091 391.483 43.4886C390.438 42.5568 389.028 42.0909 387.256 42.0909C385.688 42.0909 384.313 42.5 383.131 43.3182C381.96 44.125 381.045 45.267 380.386 46.7443C379.739 48.2102 379.415 49.9318 379.415 51.9091C379.415 53.9318 379.733 55.6932 380.369 57.1932C381.017 58.6932 381.926 59.858 383.097 60.6875C384.278 61.517 385.665 61.9318 387.256 61.9318C388.301 61.9318 389.25 61.75 390.102 61.3864C390.955 61.0227 391.676 60.5 392.267 59.8182C392.858 59.1364 393.278 58.3182 393.528 57.3636H397.551C397.324 58.9091 396.761 60.3011 395.864 61.5398C394.977 62.767 393.801 63.7443 392.335 64.4716C390.881 65.1875 389.188 65.5455 387.256 65.5455ZM403.432 65V38.8182H407.455V65H403.432ZM405.477 34.4545C404.693 34.4545 404.017 34.1875 403.449 33.6534C402.892 33.1193 402.614 32.4773 402.614 31.7273C402.614 30.9773 402.892 30.3352 403.449 29.8011C404.017 29.267 404.693 29 405.477 29C406.261 29 406.932 29.267 407.489 29.8011C408.057 30.3352 408.341 30.9773 408.341 31.7273C408.341 32.4773 408.057 33.1193 407.489 33.6534C406.932 34.1875 406.261 34.4545 405.477 34.4545ZM418.845 49.25V65H414.822V38.8182H418.709V42.9091H419.05C419.663 41.5795 420.595 40.5114 421.845 39.7045C423.095 38.8864 424.709 38.4773 426.686 38.4773C428.459 38.4773 430.01 38.8409 431.339 39.5682C432.669 40.2841 433.703 41.375 434.442 42.8409C435.18 44.2955 435.55 46.1364 435.55 48.3636V65H431.527V48.6364C431.527 46.5795 430.993 44.9773 429.925 43.8295C428.857 42.6705 427.391 42.0909 425.527 42.0909C424.243 42.0909 423.095 42.3693 422.084 42.9261C421.084 43.483 420.294 44.2955 419.714 45.3636C419.135 46.4318 418.845 47.7273 418.845 49.25ZM453.469 75.3636C451.526 75.3636 449.855 75.1136 448.457 74.6136C447.06 74.125 445.895 73.4773 444.963 72.6705C444.043 71.875 443.31 71.0227 442.764 70.1136L445.969 67.8636C446.332 68.3409 446.793 68.8864 447.349 69.5C447.906 70.125 448.668 70.6648 449.634 71.1193C450.611 71.5852 451.889 71.8182 453.469 71.8182C455.582 71.8182 457.327 71.3068 458.702 70.2841C460.077 69.2614 460.764 67.6591 460.764 65.4773V60.1591H460.423C460.128 60.6364 459.707 61.2273 459.162 61.9318C458.628 62.625 457.855 63.2443 456.844 63.7898C455.844 64.3239 454.491 64.5909 452.787 64.5909C450.673 64.5909 448.776 64.0909 447.094 63.0909C445.423 62.0909 444.099 60.6364 443.122 58.7273C442.156 56.8182 441.673 54.5 441.673 51.7727C441.673 49.0909 442.145 46.7557 443.088 44.767C444.031 42.767 445.344 41.2216 447.026 40.1307C448.707 39.0284 450.651 38.4773 452.855 38.4773C454.56 38.4773 455.912 38.7614 456.912 39.3295C457.923 39.8864 458.696 40.5227 459.23 41.2386C459.776 41.9432 460.196 42.5227 460.491 42.9773H460.901V38.8182H464.787V65.75C464.787 68 464.276 69.8295 463.253 71.2386C462.241 72.6591 460.878 73.6989 459.162 74.358C457.457 75.0284 455.56 75.3636 453.469 75.3636ZM453.332 60.9773C454.946 60.9773 456.31 60.608 457.423 59.8693C458.537 59.1307 459.384 58.0682 459.963 56.6818C460.543 55.2955 460.832 53.6364 460.832 51.7045C460.832 49.8182 460.548 48.1534 459.98 46.7102C459.412 45.267 458.571 44.1364 457.457 43.3182C456.344 42.5 454.969 42.0909 453.332 42.0909C451.628 42.0909 450.207 42.5227 449.071 43.3864C447.946 44.25 447.099 45.4091 446.531 46.8636C445.974 48.3182 445.696 49.9318 445.696 51.7045C445.696 53.5227 445.98 55.1307 446.548 56.5284C447.128 57.9148 447.98 59.0057 449.105 59.8011C450.241 60.5852 451.651 60.9773 453.332 60.9773ZM475.082 65.2727C474.241 65.2727 473.52 64.9716 472.918 64.3693C472.315 63.767 472.014 63.0455 472.014 62.2045C472.014 61.3636 472.315 60.642 472.918 60.0398C473.52 59.4375 474.241 59.1364 475.082 59.1364C475.923 59.1364 476.645 59.4375 477.247 60.0398C477.849 60.642 478.151 61.3636 478.151 62.2045C478.151 62.7614 478.009 63.2727 477.724 63.7386C477.452 64.2045 477.082 64.5795 476.616 64.8636C476.162 65.1364 475.651 65.2727 475.082 65.2727ZM489.392 49.25V65H485.369V38.8182H489.256V42.9091H489.597C490.21 41.5795 491.142 40.5114 492.392 39.7045C493.642 38.8864 495.256 38.4773 497.233 38.4773C499.006 38.4773 500.557 38.8409 501.886 39.5682C503.216 40.2841 504.25 41.375 504.989 42.8409C505.727 44.2955 506.097 46.1364 506.097 48.3636V65H502.074V48.6364C502.074 46.5795 501.54 44.9773 500.472 43.8295C499.403 42.6705 497.938 42.0909 496.074 42.0909C494.79 42.0909 493.642 42.3693 492.631 42.9261C491.631 43.483 490.841 44.2955 490.261 45.3636C489.682 46.4318 489.392 47.7273 489.392 49.25ZM517.47 30.0909V65H513.447V30.0909H517.47Z" fill="white"/>
<g clip-path="url(#clip0_106_10)">
<path d="M103.088 89.035L85.4261 71.3728C90.0553 64.1565 92.75 55.5837 92.75 46.375C92.75 20.7628 71.9872 0 46.375 0C20.7627 0 0 20.7628 0 46.375C0 71.9872 20.7627 92.75 46.375 92.75C55.5837 92.75 64.1565 90.0553 71.3728 85.4261L89.035 103.088C92.9173 106.971 99.2077 106.971 103.088 103.088C106.969 99.2061 106.971 92.9173 103.088 89.035ZM46.375 89.4375C22.5929 89.4375 3.3125 70.1571 3.3125 46.375C3.3125 22.5929 22.5929 3.3125 46.375 3.3125C70.1571 3.3125 89.4375 22.5929 89.4375 46.375C89.4375 70.1571 70.1571 89.4375 46.375 89.4375ZM100.746 100.746C98.1593 103.333 93.964 103.333 91.3786 100.746L74.1487 83.5164C77.7013 80.8565 80.8581 77.698 83.5181 74.1487L100.746 91.377C103.335 93.9624 103.335 98.1593 100.746 100.746Z" fill="white"/>
<path d="M46.375 6.625C24.4214 6.625 6.625 24.4214 6.625 46.375C6.625 68.3286 24.4214 86.125 46.375 86.125C68.3286 86.125 86.125 68.3286 86.125 46.375C86.125 24.4214 68.3286 6.625 46.375 6.625ZM46.375 82.8125C26.2516 82.8125 9.9375 66.4984 9.9375 46.375C9.9375 26.2516 26.2516 9.9375 46.375 9.9375C66.4984 9.9375 82.8125 26.2516 82.8125 46.375C82.8125 66.4984 66.4984 82.8125 46.375 82.8125Z" fill="white"/>
<path d="M46.375 18.2188C45.4591 18.2188 44.7188 18.9591 44.7188 19.875C44.7188 20.7909 45.4591 21.5312 46.375 21.5312C60.0954 21.5312 71.2188 32.6546 71.2188 46.375C71.2188 47.2909 71.9591 48.0312 72.875 48.0312C73.7909 48.0312 74.5312 47.2909 74.5312 46.375C74.5312 30.8245 61.9255 18.2188 46.375 18.2188Z" fill="white"/>
<path d="M56.4394 56.0551L55.4922 55.7844C53.8985 55.3484 52.801 55.0177 52.6206 53.1534C56.8754 48.643 56.8152 44.6287 56.725 40.419C56.725 39.8477 56.725 39.2763 56.725 38.69C56.6862 35.9109 55.5649 33.2565 53.5996 31.2912C51.6342 29.3259 48.9799 28.2046 46.2008 28.1657C43.419 28.2007 40.7608 29.3203 38.7923 31.286C36.8238 33.2517 35.7004 35.9083 35.6614 38.69C35.6614 39.2763 35.6614 39.8477 35.6614 40.419C35.5712 44.6287 35.5111 48.6129 39.7659 53.1534C39.5855 55.0177 38.488 55.3484 36.8943 55.7844L35.9471 56.0551C30.5647 57.8442 25.1371 62.7455 25.1371 68.7594C25.1371 69.1581 25.2955 69.5405 25.5775 69.8225C25.8595 70.1045 26.2419 70.2629 26.6406 70.2629C27.0394 70.2629 27.4218 70.1045 27.7037 69.8225C27.9857 69.5405 28.1441 69.1581 28.1441 68.7594C28.1441 64.249 32.6545 60.3249 36.8943 58.9117C37.1348 58.8215 37.4055 58.7613 37.6761 58.6861C38.6794 58.5377 39.6308 58.1447 40.4462 57.5416C41.2617 56.9385 41.9161 56.144 42.3519 55.2282C43.531 55.8599 44.848 56.1904 46.1857 56.1904C47.5234 56.1904 48.8404 55.8599 50.0196 55.2282C50.4456 56.1581 51.0959 56.9677 51.912 57.5843C52.728 58.201 53.6844 58.6054 54.6954 58.7613C54.966 58.8365 55.2366 58.8966 55.4772 58.9868C59.7169 60.3249 64.2273 64.249 64.2273 68.7594C64.2273 69.1581 64.3857 69.5405 64.6677 69.8225C64.9497 70.1045 65.3321 70.2629 65.7308 70.2629C66.1296 70.2629 66.512 70.1045 66.7939 69.8225C67.0759 69.5405 67.2343 69.1581 67.2343 68.7594C67.2343 62.7455 61.8068 57.8442 56.4394 56.0551ZM42.3669 51.5447C38.518 47.7108 38.5782 44.4934 38.6684 40.4641C38.6684 39.8928 38.6684 39.2914 38.6684 38.69C38.6684 36.6963 39.4604 34.7842 40.8702 33.3744C42.2799 31.9647 44.192 31.1726 46.1857 31.1726C48.1794 31.1726 50.0915 31.9647 51.5013 33.3744C52.9111 34.7842 53.7031 36.6963 53.7031 38.69C53.7031 39.2914 53.7031 39.8928 53.7031 40.4641C53.7031 44.4934 53.8384 47.6807 49.9895 51.5296C49.4895 52.031 48.8955 52.4289 48.2415 52.7003C47.5874 52.9717 46.8863 53.1115 46.1782 53.1115C45.4701 53.1115 44.769 52.9717 44.1149 52.7003C43.4609 52.4289 42.8669 52.031 42.3669 51.5296V51.5447Z" fill="white"/>
</g>
<defs>
<clipPath id="clip0_106_10">
<rect width="106" height="106" fill="white"/>
</clipPath>
</defs>
</svg>
