<svg width="585" height="191" viewBox="0 0 585 191" fill="none" xmlns="http://www.w3.org/2000/svg">
<path d="M85.3064 72.7125L83.7539 72.2689C81.1418 71.5543 79.3429 71.0121 79.0471 67.9564C86.0211 60.5636 85.9225 53.9839 85.7746 47.0839C85.7746 46.1475 85.7746 45.2111 85.7746 44.25C85.7109 39.6948 83.8731 35.3442 80.6518 32.1229C77.4305 28.9016 73.0798 27.0637 68.5246 27C63.9652 27.0574 59.6083 28.8924 56.3817 32.1144C53.1551 35.3363 51.3139 39.6906 51.25 44.25C51.25 45.2111 51.25 46.1475 51.25 47.0839C51.1021 53.9839 51.0036 60.5143 57.9775 67.9564C57.6818 71.0121 55.8829 71.5543 53.2707 72.2689L51.7182 72.7125C42.8961 75.645 34 83.6786 34 93.5357C34 94.1893 34.2596 94.8161 34.7218 95.2782C35.1839 95.7404 35.8107 96 36.4643 96C37.1179 96 37.7447 95.7404 38.2068 95.2782C38.6689 94.8161 38.9286 94.1893 38.9286 93.5357C38.9286 86.1429 46.3214 79.7111 53.2707 77.3946C53.665 77.2468 54.1086 77.1482 54.5521 77.025C56.1966 76.7818 57.756 76.1375 59.0926 75.149C60.4291 74.1605 61.5019 72.8583 62.2161 71.3571C64.1488 72.3925 66.3074 72.9343 68.5 72.9343C70.6926 72.9343 72.8512 72.3925 74.7839 71.3571C75.4823 72.8813 76.5481 74.2083 77.8857 75.219C79.2233 76.2298 80.7909 76.8927 82.4479 77.1482C82.8914 77.2714 83.335 77.37 83.7293 77.5179C90.6786 79.7111 98.0714 86.1429 98.0714 93.5357C98.0714 94.1893 98.3311 94.8161 98.7932 95.2782C99.2553 95.7404 99.8821 96 100.536 96C101.189 96 101.816 95.7404 102.278 95.2782C102.74 94.8161 103 94.1893 103 93.5357C103 83.6786 94.1039 75.645 85.3064 72.7125ZM62.2407 65.3196C55.9321 59.0357 56.0307 53.7621 56.1786 47.1579C56.1786 46.2214 56.1786 45.2357 56.1786 44.25C56.1786 40.9822 57.4767 37.8481 59.7874 35.5374C62.0981 33.2267 65.2322 31.9286 68.5 31.9286C71.7678 31.9286 74.9018 33.2267 77.2126 35.5374C79.5233 37.8481 80.8214 40.9822 80.8214 44.25C80.8214 45.2357 80.8214 46.2214 80.8214 47.1579C80.8214 53.7621 81.0432 58.9864 74.7346 65.295C73.9151 66.1168 72.9415 66.7689 71.8695 67.2138C70.7975 67.6587 69.6483 67.8877 68.4877 67.8877C67.327 67.8877 66.1778 67.6587 65.1059 67.2138C64.0339 66.7689 63.0602 66.1168 62.2407 65.295V65.3196Z" fill="white"/>
<path d="M69.5381 139.103C86.0004 139.103 101.573 133.396 114.054 122.962L120.483 129.391L118.346 131.528C117.224 132.65 116.597 134.166 116.597 135.748C116.597 137.33 117.224 138.852 118.346 139.968L167.632 189.251C168.796 190.415 170.324 191 171.852 191C173.38 191 174.908 190.415 176.072 189.251L189.251 176.071C190.373 174.949 191 173.432 191 171.85C191 170.269 190.373 168.746 189.251 167.63L139.966 118.348C137.632 116.014 133.859 116.014 131.526 118.348L128.923 120.95L122.518 114.545C133.221 101.986 139.094 86.2326 139.094 69.5544C139.094 50.9779 131.86 33.5117 118.722 20.3733C105.585 7.2348 88.1194 0 69.5441 0C50.9688 0 33.5036 7.2348 20.372 20.3733C7.23435 33.5117 0 50.9719 0 69.5544C0 88.1309 7.23435 105.597 20.372 118.73C33.4977 131.874 50.9628 139.103 69.5381 139.103ZM176.585 171.856L171.846 176.59L131 135.748L135.74 131.014L176.585 171.856ZM28.8061 28.8198C39.6875 17.9378 54.1502 11.9446 69.5381 11.9446C84.926 11.9446 99.3947 17.9378 110.276 28.8198C121.157 39.7019 127.15 54.1715 127.15 69.5604C127.15 84.9492 121.157 99.4129 110.276 110.295C99.3947 121.177 84.926 127.17 69.5381 127.17C54.1502 127.17 39.6875 121.177 28.8061 110.295C17.9247 99.4129 11.9319 84.9433 11.9319 69.5604C11.9319 54.1655 17.9187 39.7019 28.8061 28.8198Z" fill="white"/>
<path d="M171.318 64.8409V61.0909H197.5V64.8409H186.523V96H182.295V64.8409H171.318ZM207.621 96.6136C205.962 96.6136 204.456 96.3011 203.104 95.6761C201.751 95.0398 200.678 94.125 199.882 92.9318C199.087 91.7273 198.689 90.2727 198.689 88.5682C198.689 87.0682 198.984 85.8523 199.575 84.9205C200.166 83.9773 200.956 83.2386 201.945 82.7045C202.933 82.1705 204.024 81.7727 205.217 81.5114C206.422 81.2386 207.632 81.0227 208.848 80.8636C210.439 80.6591 211.729 80.5057 212.717 80.4034C213.717 80.2898 214.445 80.1023 214.899 79.8409C215.365 79.5795 215.598 79.125 215.598 78.4773V78.3409C215.598 76.6591 215.138 75.3523 214.217 74.4205C213.308 73.4886 211.928 73.0227 210.075 73.0227C208.155 73.0227 206.649 73.4432 205.558 74.2841C204.467 75.125 203.7 76.0227 203.257 76.9773L199.439 75.6136C200.121 74.0227 201.03 72.7841 202.166 71.8977C203.314 71 204.564 70.375 205.916 70.0227C207.28 69.6591 208.621 69.4773 209.939 69.4773C210.78 69.4773 211.746 69.5795 212.837 69.7841C213.939 69.9773 215.001 70.3807 216.024 70.9943C217.058 71.608 217.916 72.5341 218.598 73.7727C219.28 75.0114 219.621 76.6705 219.621 78.75V96H215.598V92.4545H215.393C215.121 93.0227 214.666 93.6307 214.03 94.2784C213.393 94.9261 212.547 95.4773 211.49 95.9318C210.433 96.3864 209.143 96.6136 207.621 96.6136ZM208.234 93C209.825 93 211.166 92.6875 212.257 92.0625C213.359 91.4375 214.189 90.6307 214.746 89.642C215.314 88.6534 215.598 87.6136 215.598 86.5227V82.8409C215.428 83.0455 215.053 83.233 214.473 83.4034C213.905 83.5625 213.246 83.7045 212.496 83.8295C211.757 83.9432 211.036 84.0455 210.331 84.1364C209.638 84.2159 209.075 84.2841 208.643 84.3409C207.598 84.4773 206.621 84.6989 205.712 85.0057C204.814 85.3011 204.087 85.75 203.53 86.3523C202.984 86.9432 202.712 87.75 202.712 88.7727C202.712 90.1705 203.229 91.2273 204.263 91.9432C205.308 92.6477 206.632 93 208.234 93ZM230.986 61.0909V96H226.963V61.0909H230.986ZM249.331 96.5455C246.808 96.5455 244.632 95.9886 242.803 94.875C240.984 93.75 239.581 92.1818 238.592 90.1705C237.615 88.1477 237.126 85.7955 237.126 83.1136C237.126 80.4318 237.615 78.0682 238.592 76.0227C239.581 73.9659 240.956 72.3636 242.717 71.2159C244.49 70.0568 246.558 69.4773 248.922 69.4773C250.286 69.4773 251.632 69.7045 252.962 70.1591C254.291 70.6136 255.501 71.3523 256.592 72.375C257.683 73.3864 258.553 74.7273 259.2 76.3977C259.848 78.0682 260.172 80.125 260.172 82.5682V84.2727H239.99V80.7955H256.081C256.081 79.3182 255.786 78 255.195 76.8409C254.615 75.6818 253.786 74.767 252.706 74.0966C251.638 73.4261 250.376 73.0909 248.922 73.0909C247.32 73.0909 245.933 73.4886 244.763 74.2841C243.604 75.0682 242.712 76.0909 242.087 77.3523C241.462 78.6136 241.149 79.9659 241.149 81.4091V83.7273C241.149 85.7045 241.49 87.3807 242.172 88.7557C242.865 90.1193 243.825 91.1591 245.053 91.875C246.28 92.5795 247.706 92.9318 249.331 92.9318C250.388 92.9318 251.342 92.7841 252.195 92.4886C253.058 92.1818 253.803 91.7273 254.428 91.125C255.053 90.5114 255.536 89.75 255.876 88.8409L259.763 89.9318C259.354 91.25 258.666 92.4091 257.7 93.4091C256.734 94.3977 255.541 95.1705 254.121 95.7273C252.7 96.2727 251.104 96.5455 249.331 96.5455ZM270.314 80.25V96H266.291V69.8182H270.178V73.9091H270.518C271.132 72.5795 272.064 71.5114 273.314 70.7045C274.564 69.8864 276.178 69.4773 278.155 69.4773C279.928 69.4773 281.479 69.8409 282.808 70.5682C284.138 71.2841 285.172 72.375 285.911 73.8409C286.649 75.2955 287.018 77.1364 287.018 79.3636V96H282.996V79.6364C282.996 77.5795 282.462 75.9773 281.393 74.8295C280.325 73.6705 278.859 73.0909 276.996 73.0909C275.712 73.0909 274.564 73.3693 273.553 73.9261C272.553 74.483 271.763 75.2955 271.183 76.3636C270.604 77.4318 270.314 78.7273 270.314 80.25ZM305.756 69.8182V73.2273H292.188V69.8182H305.756ZM296.142 63.5455H300.165V88.5C300.165 89.6364 300.33 90.4886 300.659 91.0568C301 91.6136 301.432 91.9886 301.955 92.1818C302.489 92.3636 303.051 92.4545 303.642 92.4545C304.085 92.4545 304.449 92.4318 304.733 92.3864C305.017 92.3295 305.244 92.2841 305.415 92.25L306.233 95.8636C305.96 95.9659 305.58 96.0682 305.091 96.1705C304.602 96.2841 303.983 96.3409 303.233 96.3409C302.097 96.3409 300.983 96.0966 299.892 95.608C298.813 95.1193 297.915 94.375 297.199 93.375C296.494 92.375 296.142 91.1136 296.142 89.5909V63.5455ZM325.869 79.1591V82.9091H310.597V79.1591H325.869ZM351.493 75.6818L347.879 76.7045C347.652 76.1023 347.317 75.517 346.874 74.9489C346.442 74.3693 345.851 73.892 345.101 73.517C344.351 73.142 343.391 72.9545 342.22 72.9545C340.618 72.9545 339.283 73.3239 338.214 74.0625C337.158 74.7898 336.629 75.7159 336.629 76.8409C336.629 77.8409 336.993 78.6307 337.72 79.2102C338.447 79.7898 339.584 80.2727 341.129 80.6591L345.016 81.6136C347.357 82.1818 349.101 83.0511 350.249 84.2216C351.396 85.3807 351.97 86.875 351.97 88.7045C351.97 90.2045 351.538 91.5455 350.675 92.7273C349.822 93.9091 348.629 94.8409 347.095 95.5227C345.561 96.2045 343.777 96.5455 341.743 96.5455C339.072 96.5455 336.862 95.9659 335.112 94.8068C333.362 93.6477 332.254 91.9545 331.788 89.7273L335.607 88.7727C335.97 90.1818 336.658 91.2386 337.669 91.9432C338.692 92.6477 340.027 93 341.675 93C343.55 93 345.038 92.6023 346.141 91.8068C347.254 91 347.811 90.0341 347.811 88.9091C347.811 88 347.493 87.2386 346.857 86.625C346.22 86 345.243 85.5341 343.925 85.2273L339.561 84.2045C337.163 83.6364 335.402 82.7557 334.277 81.5625C333.163 80.358 332.607 78.8523 332.607 77.0455C332.607 75.5682 333.021 74.2614 333.851 73.125C334.692 71.9886 335.834 71.0966 337.277 70.4489C338.732 69.8011 340.379 69.4773 342.22 69.4773C344.811 69.4773 346.845 70.0455 348.322 71.1818C349.811 72.3182 350.868 73.8182 351.493 75.6818ZM368.662 96.5455C366.298 96.5455 364.224 95.983 362.44 94.858C360.668 93.733 359.281 92.1591 358.281 90.1364C357.293 88.1136 356.798 85.75 356.798 83.0455C356.798 80.3182 357.293 77.9375 358.281 75.9034C359.281 73.8693 360.668 72.2898 362.44 71.1648C364.224 70.0398 366.298 69.4773 368.662 69.4773C371.026 69.4773 373.094 70.0398 374.866 71.1648C376.651 72.2898 378.037 73.8693 379.026 75.9034C380.026 77.9375 380.526 80.3182 380.526 83.0455C380.526 85.75 380.026 88.1136 379.026 90.1364C378.037 92.1591 376.651 93.733 374.866 94.858C373.094 95.983 371.026 96.5455 368.662 96.5455ZM368.662 92.9318C370.457 92.9318 371.935 92.4716 373.094 91.5511C374.253 90.6307 375.111 89.4205 375.668 87.9205C376.224 86.4205 376.503 84.7955 376.503 83.0455C376.503 81.2955 376.224 79.6648 375.668 78.1534C375.111 76.642 374.253 75.4205 373.094 74.4886C371.935 73.5568 370.457 73.0909 368.662 73.0909C366.866 73.0909 365.389 73.5568 364.23 74.4886C363.071 75.4205 362.213 76.642 361.656 78.1534C361.099 79.6648 360.821 81.2955 360.821 83.0455C360.821 84.7955 361.099 86.4205 361.656 87.9205C362.213 89.4205 363.071 90.6307 364.23 91.5511C365.389 92.4716 366.866 92.9318 368.662 92.9318ZM403.166 85.2955V69.8182H407.189V96H403.166V91.5682H402.893C402.28 92.8977 401.325 94.0284 400.03 94.9602C398.734 95.8807 397.098 96.3409 395.121 96.3409C393.484 96.3409 392.03 95.983 390.757 95.267C389.484 94.5398 388.484 93.4489 387.757 91.9943C387.03 90.5284 386.666 88.6818 386.666 86.4545V69.8182H390.689V86.1818C390.689 88.0909 391.223 89.6136 392.291 90.75C393.371 91.8864 394.746 92.4545 396.416 92.4545C397.416 92.4545 398.433 92.1989 399.467 91.6875C400.513 91.1761 401.388 90.392 402.092 89.3352C402.808 88.2784 403.166 86.9318 403.166 85.2955ZM414.557 96V69.8182H418.443V73.7727H418.716C419.193 72.4773 420.057 71.4261 421.307 70.6193C422.557 69.8125 423.966 69.4091 425.534 69.4091C425.83 69.4091 426.199 69.4148 426.642 69.4261C427.085 69.4375 427.42 69.4545 427.648 69.4773V73.5682C427.511 73.5341 427.199 73.483 426.71 73.4148C426.233 73.3352 425.727 73.2955 425.193 73.2955C423.92 73.2955 422.784 73.5625 421.784 74.0966C420.795 74.6193 420.011 75.3466 419.432 76.2784C418.864 77.1989 418.58 78.25 418.58 79.4318V96H414.557ZM442.256 96.5455C439.801 96.5455 437.688 95.9659 435.915 94.8068C434.142 93.6477 432.778 92.0511 431.824 90.017C430.869 87.983 430.392 85.6591 430.392 83.0455C430.392 80.3864 430.881 78.0398 431.858 76.0057C432.847 73.9602 434.222 72.3636 435.983 71.2159C437.756 70.0568 439.824 69.4773 442.188 69.4773C444.028 69.4773 445.688 69.8182 447.165 70.5C448.642 71.1818 449.852 72.1364 450.795 73.3636C451.739 74.5909 452.324 76.0227 452.551 77.6591H448.528C448.222 76.4659 447.54 75.4091 446.483 74.4886C445.438 73.5568 444.028 73.0909 442.256 73.0909C440.688 73.0909 439.313 73.5 438.131 74.3182C436.96 75.125 436.045 76.267 435.386 77.7443C434.739 79.2102 434.415 80.9318 434.415 82.9091C434.415 84.9318 434.733 86.6932 435.369 88.1932C436.017 89.6932 436.926 90.858 438.097 91.6875C439.278 92.517 440.665 92.9318 442.256 92.9318C443.301 92.9318 444.25 92.75 445.102 92.3864C445.955 92.0227 446.676 91.5 447.267 90.8182C447.858 90.1364 448.278 89.3182 448.528 88.3636H452.551C452.324 89.9091 451.761 91.3011 450.864 92.5398C449.977 93.767 448.801 94.7443 447.335 95.4716C445.881 96.1875 444.188 96.5455 442.256 96.5455ZM458.432 96V69.8182H462.455V96H458.432ZM460.477 65.4545C459.693 65.4545 459.017 65.1875 458.449 64.6534C457.892 64.1193 457.614 63.4773 457.614 62.7273C457.614 61.9773 457.892 61.3352 458.449 60.8011C459.017 60.267 459.693 60 460.477 60C461.261 60 461.932 60.267 462.489 60.8011C463.057 61.3352 463.341 61.9773 463.341 62.7273C463.341 63.4773 463.057 64.1193 462.489 64.6534C461.932 65.1875 461.261 65.4545 460.477 65.4545ZM473.845 80.25V96H469.822V69.8182H473.709V73.9091H474.05C474.663 72.5795 475.595 71.5114 476.845 70.7045C478.095 69.8864 479.709 69.4773 481.686 69.4773C483.459 69.4773 485.01 69.8409 486.339 70.5682C487.669 71.2841 488.703 72.375 489.442 73.8409C490.18 75.2955 490.55 77.1364 490.55 79.3636V96H486.527V79.6364C486.527 77.5795 485.993 75.9773 484.925 74.8295C483.857 73.6705 482.391 73.0909 480.527 73.0909C479.243 73.0909 478.095 73.3693 477.084 73.9261C476.084 74.483 475.294 75.2955 474.714 76.3636C474.135 77.4318 473.845 78.7273 473.845 80.25ZM508.469 106.364C506.526 106.364 504.855 106.114 503.457 105.614C502.06 105.125 500.895 104.477 499.963 103.67C499.043 102.875 498.31 102.023 497.764 101.114L500.969 98.8636C501.332 99.3409 501.793 99.8864 502.349 100.5C502.906 101.125 503.668 101.665 504.634 102.119C505.611 102.585 506.889 102.818 508.469 102.818C510.582 102.818 512.327 102.307 513.702 101.284C515.077 100.261 515.764 98.6591 515.764 96.4773V91.1591H515.423C515.128 91.6364 514.707 92.2273 514.162 92.9318C513.628 93.625 512.855 94.2443 511.844 94.7898C510.844 95.3239 509.491 95.5909 507.787 95.5909C505.673 95.5909 503.776 95.0909 502.094 94.0909C500.423 93.0909 499.099 91.6364 498.122 89.7273C497.156 87.8182 496.673 85.5 496.673 82.7727C496.673 80.0909 497.145 77.7557 498.088 75.767C499.031 73.767 500.344 72.2216 502.026 71.1307C503.707 70.0284 505.651 69.4773 507.855 69.4773C509.56 69.4773 510.912 69.7614 511.912 70.3295C512.923 70.8864 513.696 71.5227 514.23 72.2386C514.776 72.9432 515.196 73.5227 515.491 73.9773H515.901V69.8182H519.787V96.75C519.787 99 519.276 100.83 518.253 102.239C517.241 103.659 515.878 104.699 514.162 105.358C512.457 106.028 510.56 106.364 508.469 106.364ZM508.332 91.9773C509.946 91.9773 511.31 91.608 512.423 90.8693C513.537 90.1307 514.384 89.0682 514.963 87.6818C515.543 86.2955 515.832 84.6364 515.832 82.7045C515.832 80.8182 515.548 79.1534 514.98 77.7102C514.412 76.267 513.571 75.1364 512.457 74.3182C511.344 73.5 509.969 73.0909 508.332 73.0909C506.628 73.0909 505.207 73.5227 504.071 74.3864C502.946 75.25 502.099 76.4091 501.531 77.8636C500.974 79.3182 500.696 80.9318 500.696 82.7045C500.696 84.5227 500.98 86.1307 501.548 87.5284C502.128 88.9148 502.98 90.0057 504.105 90.8011C505.241 91.5852 506.651 91.9773 508.332 91.9773ZM530.082 96.2727C529.241 96.2727 528.52 95.9716 527.918 95.3693C527.315 94.767 527.014 94.0455 527.014 93.2045C527.014 92.3636 527.315 91.642 527.918 91.0398C528.52 90.4375 529.241 90.1364 530.082 90.1364C530.923 90.1364 531.645 90.4375 532.247 91.0398C532.849 91.642 533.151 92.3636 533.151 93.2045C533.151 93.7614 533.009 94.2727 532.724 94.7386C532.452 95.2045 532.082 95.5795 531.616 95.8636C531.162 96.1364 530.651 96.2727 530.082 96.2727ZM544.392 80.25V96H540.369V69.8182H544.256V73.9091H544.597C545.21 72.5795 546.142 71.5114 547.392 70.7045C548.642 69.8864 550.256 69.4773 552.233 69.4773C554.006 69.4773 555.557 69.8409 556.886 70.5682C558.216 71.2841 559.25 72.375 559.989 73.8409C560.727 75.2955 561.097 77.1364 561.097 79.3636V96H557.074V79.6364C557.074 77.5795 556.54 75.9773 555.472 74.8295C554.403 73.6705 552.938 73.0909 551.074 73.0909C549.79 73.0909 548.642 73.3693 547.631 73.9261C546.631 74.483 545.841 75.2955 545.261 76.3636C544.682 77.4318 544.392 78.7273 544.392 80.25ZM572.47 61.0909V96H568.447V61.0909H572.47Z" fill="white"/>
</svg>
