<svg width="165" height="165" viewBox="0 0 165 165" fill="none" xmlns="http://www.w3.org/2000/svg">
<circle cx="62.5" cy="62.5" r="58.5" stroke="white" stroke-width="8"/>
<circle cx="62" cy="40" r="10.5" stroke="white" stroke-width="5"/>
<mask id="path-3-inside-1_3_15" fill="white">
<path d="M94 91C94 86.5351 93.1852 82.1138 91.6022 77.9888C90.0192 73.8637 87.6989 70.1156 84.7739 66.9584C81.8488 63.8012 78.3763 61.2968 74.5545 59.5881C70.7328 57.8794 66.6366 57 62.5 57C58.3634 57 54.2672 57.8794 50.4455 59.5881C46.6237 61.2968 43.1512 63.8012 40.2261 66.9584C37.3011 70.1156 34.9808 73.8637 33.3978 77.9888C31.8148 82.1138 31 86.5351 31 91L36.4698 91C36.4698 87.3104 37.1431 83.6569 38.4512 80.2481C39.7594 76.8393 41.6768 73.742 44.0939 71.1331C46.511 68.5241 49.3805 66.4546 52.5387 65.0426C55.6968 63.6307 59.0817 62.9039 62.5 62.9039C65.9183 62.9039 69.3032 63.6307 72.4613 65.0426C75.6194 66.4546 78.489 68.5241 80.9061 71.1331C83.3232 73.742 85.2406 76.8393 86.5488 80.2481C87.8569 83.6569 88.5302 87.3104 88.5302 91H94Z"/>
</mask>
<path d="M94 91C94 86.5351 93.1852 82.1138 91.6022 77.9888C90.0192 73.8637 87.6989 70.1156 84.7739 66.9584C81.8488 63.8012 78.3763 61.2968 74.5545 59.5881C70.7328 57.8794 66.6366 57 62.5 57C58.3634 57 54.2672 57.8794 50.4455 59.5881C46.6237 61.2968 43.1512 63.8012 40.2261 66.9584C37.3011 70.1156 34.9808 73.8637 33.3978 77.9888C31.8148 82.1138 31 86.5351 31 91L36.4698 91C36.4698 87.3104 37.1431 83.6569 38.4512 80.2481C39.7594 76.8393 41.6768 73.742 44.0939 71.1331C46.511 68.5241 49.3805 66.4546 52.5387 65.0426C55.6968 63.6307 59.0817 62.9039 62.5 62.9039C65.9183 62.9039 69.3032 63.6307 72.4613 65.0426C75.6194 66.4546 78.489 68.5241 80.9061 71.1331C83.3232 73.742 85.2406 76.8393 86.5488 80.2481C87.8569 83.6569 88.5302 87.3104 88.5302 91H94Z" stroke="white" stroke-width="16" mask="url(#path-3-inside-1_3_15)"/>
<path d="M159.864 137.254C162.979 140.135 164.822 144.136 164.988 148.376C165.153 152.616 163.628 156.749 160.746 159.864C157.865 162.979 153.864 164.822 149.624 164.988C145.384 165.153 141.251 163.628 138.136 160.746L143.853 154.565C145.329 155.93 147.287 156.652 149.296 156.574C151.304 156.496 153.2 155.622 154.565 154.147C155.93 152.671 156.652 150.713 156.574 148.704C156.496 146.696 155.623 144.8 154.147 143.435L159.864 137.254Z" fill="white"/>
<line x1="111.798" y1="96.1413" x2="158.798" y2="142.141" stroke="white" stroke-width="8"/>
<line x1="95.7972" y1="113.141" x2="141.797" y2="158.141" stroke="white" stroke-width="8"/>
</svg>
