<svg width="182" height="190" viewBox="0 0 182 190" fill="none" xmlns="http://www.w3.org/2000/svg">
<circle cx="62.5" cy="62.5" r="60" stroke="white" stroke-width="5"/>
<line x1="93.7555" y1="114.22" x2="166.756" y2="186.22" stroke="white" stroke-width="5"/>
<circle cx="62.5" cy="36.5" r="14" stroke="white" stroke-width="5"/>
<mask id="path-4-inside-1_2_9" fill="white">
<path d="M96 91.5C96 86.7068 95.1206 81.9604 93.4119 77.5321C91.7032 73.1037 89.1988 69.0799 86.0416 65.6906C82.8844 62.3013 79.1363 59.6127 75.0112 57.7784C70.8862 55.9441 66.4649 55 62 55C57.5351 55 53.1138 55.9441 48.9888 57.7784C44.8637 59.6127 41.1156 62.3013 37.9584 65.6906C34.8012 69.0799 32.2968 73.1037 30.5881 77.5321C28.8794 81.9604 28 86.7068 28 91.5L62 91.5H96Z"/>
</mask>
<path d="M96 91.5C96 86.7068 95.1206 81.9604 93.4119 77.5321C91.7032 73.1037 89.1988 69.0799 86.0416 65.6906C82.8844 62.3013 79.1363 59.6127 75.0112 57.7784C70.8862 55.9441 66.4649 55 62 55C57.5351 55 53.1138 55.9441 48.9888 57.7784C44.8637 59.6127 41.1156 62.3013 37.9584 65.6906C34.8012 69.0799 32.2968 73.1037 30.5881 77.5321C28.8794 81.9604 28 86.7068 28 91.5L62 91.5H96Z" stroke="white" stroke-width="10" mask="url(#path-4-inside-1_2_9)"/>
<line x1="104.756" y1="102.22" x2="177.756" y2="174.22" stroke="white" stroke-width="5"/>
<path d="M178.351 171.149C180.367 173.165 181.5 175.899 181.5 178.75C181.5 181.601 180.367 184.335 178.351 186.351C176.335 188.367 173.601 189.5 170.75 189.5C167.899 189.5 165.165 188.367 163.149 186.351L166.845 182.655C167.88 183.691 169.285 184.273 170.75 184.273C172.215 184.273 173.62 183.691 174.655 182.655C175.691 181.62 176.273 180.215 176.273 178.75C176.273 177.285 175.691 175.88 174.655 174.845L178.351 171.149Z" fill="white"/>
</svg>
