<svg width="156" height="164" viewBox="0 0 156 164" fill="none" xmlns="http://www.w3.org/2000/svg">
<circle cx="62.5" cy="62.5" r="60" stroke="white" stroke-width="5"/>
<circle cx="62.5" cy="36.5" r="14" stroke="white" stroke-width="5"/>
<mask id="path-3-inside-1_3_14" fill="white">
<path d="M96 98.5C96 93.7068 95.1206 88.9604 93.4119 84.5321C91.7032 80.1037 89.1988 76.0799 86.0416 72.6906C82.8844 69.3013 79.1363 66.6127 75.0112 64.7784C70.8862 62.9441 66.4649 62 62 62C57.5351 62 53.1138 62.9441 48.9888 64.7784C44.8637 66.6127 41.1156 69.3013 37.9584 72.6906C34.8012 76.0799 32.2968 80.1037 30.5881 84.5321C28.8794 88.9604 28 93.7068 28 98.5L33.9039 98.5C33.9039 94.5391 34.6307 90.6169 36.0426 86.9575C37.4546 83.2981 39.5241 79.9731 42.1331 77.1723C44.742 74.3715 47.8393 72.1498 51.2481 70.634C54.6569 69.1182 58.3104 68.338 62 68.338C65.6896 68.338 69.3431 69.1182 72.7519 70.634C76.1607 72.1498 79.258 74.3715 81.8669 77.1723C84.4759 79.9731 86.5454 83.2981 87.9574 86.9575C89.3693 90.6169 90.0961 94.5391 90.0961 98.5H96Z"/>
</mask>
<path d="M96 98.5C96 93.7068 95.1206 88.9604 93.4119 84.5321C91.7032 80.1037 89.1988 76.0799 86.0416 72.6906C82.8844 69.3013 79.1363 66.6127 75.0112 64.7784C70.8862 62.9441 66.4649 62 62 62C57.5351 62 53.1138 62.9441 48.9888 64.7784C44.8637 66.6127 41.1156 69.3013 37.9584 72.6906C34.8012 76.0799 32.2968 80.1037 30.5881 84.5321C28.8794 88.9604 28 93.7068 28 98.5L33.9039 98.5C33.9039 94.5391 34.6307 90.6169 36.0426 86.9575C37.4546 83.2981 39.5241 79.9731 42.1331 77.1723C44.742 74.3715 47.8393 72.1498 51.2481 70.634C54.6569 69.1182 58.3104 68.338 62 68.338C65.6896 68.338 69.3431 69.1182 72.7519 70.634C76.1607 72.1498 79.258 74.3715 81.8669 77.1723C84.4759 79.9731 86.5454 83.2981 87.9574 86.9575C89.3693 90.6169 90.0961 94.5391 90.0961 98.5H96Z" stroke="white" stroke-width="10" mask="url(#path-3-inside-1_3_14)"/>
<path d="M152.351 145.149C154.367 147.165 155.5 149.899 155.5 152.75C155.5 155.601 154.367 158.335 152.351 160.351C150.335 162.367 147.601 163.5 144.75 163.5C141.899 163.5 139.165 162.367 137.149 160.351L140.845 156.655C141.88 157.691 143.285 158.273 144.75 158.273C146.215 158.273 147.62 157.691 148.655 156.655C149.691 155.62 150.273 154.215 150.273 152.75C150.273 151.285 149.691 149.88 148.655 148.845L152.351 145.149Z" fill="white"/>
<line x1="104.749" y1="102.213" x2="151.749" y2="148.213" stroke="white" stroke-width="5"/>
<line x1="93.7482" y1="114.213" x2="139.748" y2="159.213" stroke="white" stroke-width="5"/>
</svg>
